<svg xmlns="http://www.w3.org/2000/svg" width="212" height="212" viewBox="0 0 212 212">
  <circle cx="106" cy="106" r="100" fill="#fff9c4"/>
  <path fill="#ffcc80" d="M184.938 73.03c-1.1 0-2.182.433-3.032 1.282l-90 90h95.344C199.055 147.897 206 127.764 206 106c0-5.025-.378-9.956-1.094-14.78L188 74.312c-.85-.85-1.963-1.282-3.063-1.282zM22.655 110.626c-1.1 0-2.212.43-3.062 1.28l-12 11.97c1.986 10.997 5.764 21.38 11.03 30.813H84.5l-30.406-30.38c-1.7-1.7-4.394-1.7-6.094 0l-4.938 4.933L25.688 111.9c-.85-.85-1.932-1.28-3.032-1.28z"/>
  <path fill="#414450" d="M16.53 150.688C32.943 183.48 66.836 206 106 206s73.058-22.52 89.47-55.313H16.53z"/>
  <path fill="#212121" d="M127.094 182.406l23.062 13.313c5.744-2.84 11.194-6.2 16.25-10.04-6.052-1.898-11.54-3.28-14.72-3.28h-24.592z"/>
  <path fill="#3da49d" d="M102.1 118.7h20.4c5.3 0 9.7-4.4 9.7-9.7v-6.3c0-5.3-4.4-9.7-9.7-9.7h-20.4c-5.3 0-9.7 4.4-9.7 9.7v6.3c0 5.4 4.4 9.7 9.7 9.7z"/>
  <path fill="#1e6e68" d="M141 155.4l2.3 16.3-6.1 10.8h-10c.6-6.8 7.1-4.9 7.1-4.9l1.4-7.8c-5-12.2-5.4-15.8-5.4-15.8l10.7 1.4z"/>
  <path fill="#3da49d" d="M118.4 105.4h13.8v21.9h-13.8z"/>
  <path fill="#1e6e68" d="M117.594 138.688c-2 0-3.594 1.625-3.594 3.625-.1 1.9 1.594 3.593 3.594 3.593h.72v-3.72h20.56c-.065-1.94-1.604-3.5-3.56-3.5h-17.72z"/>
  <path fill="#3da49d" d="M130.78 120.5c-5.153-.1-9.674.58-12.374 1.594.2 9.9-1.994 22.006 8.406 32.406 8.442 8.44 20.49 11.403 28.907 8h.03c24.16.47 43.15-5.326 49.06-14.5.8-1.2 1.78-3.794-1.72-2.594-27.52 9.27-36.38-7.928-48.598-17.406-6.51-5.34-15.84-7.347-23.72-7.5zm-3.28-11.6L95 114c1.3 4.7 5.9 7.9 10.9 7.1l23-3.6-1.4-8.6z"/>
  <path fill="#3da49d" d="M155.5 155.4l2.3 16.3-6.1 10.8h-10c.6-6.8 7.1-4.9 7.1-4.9l1.1-4.2c-6.6-7.6-14.3-14.9-14.3-14.9l19.9-3.1zm-43.687-21.587c-2 0-3.626 1.593-3.626 3.593 0 1.9 1.626 3.594 3.626 3.594h.687v-3.688h20.594c-.05-1.956-1.625-3.5-3.594-3.5h-17.688z"/>
  <path fill="#1e6e68" d="M132.26 120.59c10.452 3.553 14.637 5.165 16.625 13.313 3.2 13.1 16.587 5.6 27.687 15 6.2 5.3 15.025 4.3 21.625 2.5.944-.29 3.987-1.43 6.813-3.75.725-1.28 1.254-3.313-1.938-2.22-27.52 9.272-36.38-7.927-48.594-17.405-6.105-5.01-14.674-7.073-22.218-7.437z"/>
  <path fill="#f07966" d="M92.4 56.2l-15.8-10s5 8.2 5.4 9.4l1 1S52.2 34.3 50.8 34c.5 1.9 27.5 36.8 27.5 36.8 1.7 3.4 5.6 5.4 9.7 5.4 5.8 0 10.4-4.7 10.4-10.4.1-4.3-2.4-8-6-9.6z"/>
  <path fill="#fff" d="M91.3 58.7l-3.2 1.5-3.3-1-3.8 4.3-1.2 4.4 4.2 4.6 5.5.3 5.4-4.5.2-5.8-3.8-3.8zm-7.5 10.6c-.7-.4-1.1-1.1-1.2-1.8-.1-.7.3-1.4.9-1.6.7-.2 1.1 0 1.4.2.2.1.4.2.7.2.5 0 1.1.3 1.4.8.3.5.2 1.2-.2 1.7-.1.1-.2.3-.3.4-.7.7-1.7.7-2.7.1zm6 .8c.1.3-.3.6-.9.8-.6.2-1.1.1-1.2-.1-.1-.3.3-.6.9-.8.6-.2 1.1-.2 1.2.1zM85 63.8c-.2-.1-.3-.4-.2-.8.1-.4.3-.7.6-.6.2.1.3.4.2.8-.1.4-.4.7-.6.6zm6.8 3.6c-.1.2-.2.3-.4.5-.4.4-1 .5-1.4.3-.2-.1-.5-.4-.6-.7-.1-.3 0-.6.1-.8.1-.1.2-.2.2-.3.2-.2.5-.3.7-.3h.1c.4-.1.8 0 1.1.4.3.1.4.6.2.9zm.3-4.7c0 .4-.3.9-.6 1.2-.1.1-.2.1-.3.2-.6.4-1.5.4-2 0-.4-.3-.5-.8-.3-1.3.1-.1 0-.3 0-.5 0-.3-.1-.8.3-1.1.1-.1.2-.2.3-.2.7-.3 1.7.2 2.1.6.4.4.5.7.5 1.1z"/>
  <path fill="#f07966" d="M96.8 31.2S77.4 21.2 76.5 21c.3 1.2 11.7 19.1 11.7 19.1 1 2.1 3.5 3.3 6 3.3 3.5 0 6.4-2.9 6.4-6.4 0-2.5-1.6-4.8-3.8-5.8z"/>
  <path fill="#fff" d="M92.2 41.3l2.1-.2 1.4-.9 2.2-1.3.5-2.8-2.5-3-4 .1-2 2.8.1 3.3 2.2 2zm4.6-5.4c.1.4-.1.8-.4.9-.4.2-1.1-.2-1.2-.1-.3 0-.6-.1-.8-.4-.2-.3 1.3-1 1.6-1 .5 0 .8.2.8.6zm-4.2-1.2c-.1-.1.2-.4.5-.5.3-.1.6-.1.7 0 .1.1-.1 1.2-.5 1.3-.3.2-.7-.6-.7-.8zm3 3.4c.1 0 .2.2.2.4s-.2.4-.3.4c-.1 0-.2 0-.2-.2s.2-.6.3-.6zm-4-1.8c0-.1.1-.2.2-.3.2-.2.8 1 .6 1.1 0 0-.6 0-.7-.1-.2-.2-.2-.5-.1-.7zm0 2.8c0-.3.1-.5.3-.7l.1-.1c.3-.3.8-.3 1.1-.1.2.2.3 1.4.1 1.6-.1.1-.1.1-.2.1-.4.2-1 0-1.2-.3-.1-.1-.2-.3-.2-.5z"/>
  <circle cx="122.4" cy="102" r="2" fill="#263238"/>
  <ellipse cx="140.8" cy="128.9" fill="#45aea0" ry="1.7" rx="2.8"/>
  <ellipse cx="156.2" cy="135.6" fill="#45aea0" ry="1.5" rx="2.2"/>
  <ellipse cx="149" cy="143.5" fill="#45aea0" ry="2" rx="3.5"/>
  <ellipse cx="171.5" cy="151" fill="#45aea0" ry="1.6" rx="3"/>
  <path fill="#3b3d48" d="m 62,157.90625 c -2.033812,0.0555 -3.855319,1.89127 -3.895049,3.92545 -0.03973,2.03418 1.708707,3.93963 3.738799,4.07455 l 24.96875,0 3,0 c 2.11325,-0.0299 4.056968,1.88654 4.056968,4 0,2.11346 -1.943718,4.02989 -4.056968,4 l -5.0625,0 c -1.926371,0.43962 -3.341531,2.47992 -3.078362,4.43821 0.26317,1.95829 2.166775,3.55259 4.140862,3.46804 l 26,0 c 1.95111,0.005 3.77196,-1.62107 3.98658,-3.56034 0.21463,-1.93927 -1.20658,-3.92425 -3.11158,-4.34591 l -7.59375,0 c -2.09459,0.1067 -4.09739,-1.70224 -4.20376,-3.79684 -0.10636,-2.09461 1.70289,-4.09712 3.79751,-4.20316 0.1353,-0.007 0.27095,-0.007 0.40625,0 1.20606,-0.13653 1.79034,-0.22006 2.40625,-0.5625 1.49896,-0.89237 2.27708,-2.8422 1.80436,-4.52141 -0.47272,-1.67921 -2.15375,-2.93675 -3.89811,-2.91609 l -43,0 c -0.1353,-0.007 -0.27095,-0.007 -0.40625,0 z m 16.5,28 c -2.094622,0.10604 -3.903872,2.10855 -3.797505,4.20316 0.106367,2.0946 2.109166,3.90354 4.203755,3.79684 l 10,0 c 2.11325,0.0299 4.056968,-1.88654 4.056968,-4 0,-2.11346 -1.943718,-4.02989 -4.056968,-4 l -10,0 c -0.1353,-0.007 -0.27095,-0.007 -0.40625,0 z"/>
  <path fill="#fff" d="m 150.90625,30.5 c -1.75059,0.102229 -3.34601,1.487679 -3.69264,3.206654 -0.34662,1.718975 0.58721,3.614441 2.16139,4.387096 l 18.625,0 c 0.61389,0.0032 1.2267,0.142925 1.78125,0.40625 1.32896,1.013239 2.37676,2.402879 2.41416,3.802912 0.006,1.544208 -0.91437,3.056433 -2.28921,3.759588 -4e-5,0.01042 -4e-5,0.02083 0,0.03125 C 169.26492,46.304457 168.57046,46.42129 168,46.5 l -9.5,0 c -1.33687,0.653718 -2.24308,2.10561 -2.24308,3.59375 0,1.48814 0.90621,2.940032 2.24308,3.59375 l 15.09375,0 c 2.20075,0 4.20312,2.002374 4.20312,4.203125 -0.94102,2.945014 -2.22635,3.578125 -5.10937,4.203125 -1.61752,0.790976 -2.55176,2.77111 -2.13374,4.522469 0.41802,1.75136 2.14586,3.0961 3.94624,3.071281 l 11.5,0 c -1.83146,-0.618196 -3.08113,-2.628259 -2.82519,-4.544216 1.01731,-2.454842 2.50016,-3.647447 4.73144,-3.643284 1.33405,-0.659501 2.23399,-2.115335 2.22753,-3.603487 -0.006,-1.488152 -0.919,-2.936119 -2.25873,-3.584013 l -2.1875,0 c -2.20092,0.106659 -4.30044,-1.799035 -4.40681,-3.999973 0.73891,-2.881456 2.27233,-4.264475 4.65681,-4.406277 -4.23425,-5.625243 -9.03859,-10.79232 -14.3438,-15.40625 -6.87958,-1.4e-5 -13.83969,0 -20.6875,0 z m -137.5,37.6875 c -1.020207,2.495499 -1.930457,5.033415 -2.75,7.625 2.662059,0.06541 5.111367,2.107742 5.185863,4.1875 0,2.309179 -2.227536,4.368476 -4.529613,4.1875 l -2.90625,0 C 7.8783678,86.560575 7.4184252,88.972956 7.0625,91.40625 l 9.84375,0 c 2.200751,0 4.203123,2.002374 4.203123,4.203125 0,2.200751 -2.002372,4.203125 -4.203123,4.203125 l -1.9375,0 c -1.614114,0.79935 -2.539615,2.78379 -2.114634,4.53413 0.424982,1.75035 2.157428,3.08944 3.958384,3.05962 l 9.8125,0 c -1.893844,-0.5849 -3.203069,-2.65527 -2.919624,-4.61701 0.283445,-1.96174 2.125171,-3.576839 4.107124,-3.60174 l 5.375,0 c 1.336867,-0.653718 2.243084,-2.10561 2.243084,-3.59375 0,-1.48814 -0.906217,-2.940032 -2.243084,-3.59375 L 31,92 c -2.200751,0 -4.203123,-2.002374 -4.203123,-4.203125 0,-2.200751 2.002372,-4.203125 4.203123,-4.203125 l 11.21875,0 c 1.617516,-0.790976 2.55176,-2.77111 2.13374,-4.522469 C 43.934471,77.319921 42.206634,75.975181 40.40625,76 L 38.25,76 c -4.827541,-0.09382 -10.05559,0.324443 -14.65625,-0.09375 -1.478701,-0.576229 -2.56194,-2.054203 -2.666209,-3.637783 -0.104268,-1.58358 0.775829,-3.190827 2.166209,-3.955967 -3.13328,-0.321279 -6.466084,-0.125 -9.6875,-0.125 z"/>
</svg>
