<svg xmlns="http://www.w3.org/2000/svg" width="212" height="212" viewBox="0 0 212 212">
  <circle cx="106" cy="106" r="100" fill="#0a3758"/>
  <circle cx="106" cy="121.2" r="84.8" fill="#083f5f"/>
  <circle cx="106" cy="136.3" r="69.7" fill="#064766"/>
  <circle cx="106" cy="151.5" r="54.5" fill="#034f6d"/>
  <circle cx="106" cy="166.7" r="39.3" fill="#015774"/>
  <path fill="#FFF" d="M78.6 31.5l3.5.8c.6.2.6 1 0 1.1l-3.5.8c-.3.1-.5.3-.6.5l-1 3.7c-.2.6-1 .6-1.1 0l-1-3.7c-.1-.3-.3-.5-.6-.5l-3.5-.8c-.6-.2-.6-1 0-1.1l3.5-.8c.3-.1.5-.3.6-.5l1-3.7c.2-.6 1-.6 1.1 0l1 3.7C78.1 31.3 78.3 31.5 78.6 31.5zM158.5 128.3l1.7.4c.3.1.3.5 0 .6l-1.7.4c-.1 0-.3.1-.3.3l-.5 1.9c-.1.3-.5.3-.6 0l-.5-1.9c0-.1-.2-.2-.3-.3l-1.7-.4c-.3-.1-.3-.5 0-.6l1.7-.4c.1 0 .3-.1.3-.3l.5-1.9c.1-.3.5-.3.6 0l.5 1.9C158.3 128.1 158.4 128.2 158.5 128.3zM67.6 72.6l1.7.4c.3.1.3.5 0 .6l-1.7.4c-.1 0-.3.1-.3.3L66.8 76c-.1.3-.5.3-.6 0l-.5-1.9c0-.1-.2-.2-.3-.3l-1.7-.4c-.3-.1-.3-.5 0-.6l1.7-.4c.1 0 .3-.1.3-.3l.5-1.9c.1-.3.5-.3.6 0l.5 1.9C67.3 72.4 67.4 72.5 67.6 72.6zM126.9 38.2l1.7.4c.3.1.3.5 0 .6l-1.7.4c-.1 0-.3.1-.3.3l-.5 1.9c-.1.3-.5.3-.6 0l-.5-1.9c0-.1-.2-.2-.3-.3l-1.7-.4c-.3-.1-.3-.5 0-.6l1.7-.4c.1 0 .3-.1.3-.3l.5-1.9c.1-.3.5-.3.6 0l.5 1.9C126.6 38.1 126.7 38.2 126.9 38.2zM177.2 113.5l2.3.5c.4.1.4.6 0 .7l-2.3.5c-.2 0-.3.2-.4.4l-.6 2.5c-.1.4-.6.4-.7 0l-.6-2.5c-.1-.2-.2-.3-.4-.4l-2.3-.5c-.4-.1-.4-.6 0-.7l2.3-.5c.2 0 .3-.2.4-.4l.6-2.5c.1-.4.6-.4.7 0l.6 2.5C176.8 113.3 177 113.5 177.2 113.5z"/>
  <path fill="#072f47" d="M 9.09375 111.5625 C 8.109225 111.55811 7.1185029 111.65059 6.15625 111.84375 C 6.9299975 125.28241 10.372428 138.0001 15.9375 149.5 C 18.277098 149.25003 20.51475 148.11191 22.09375 146.1875 C 22.89375 145.1875 23.5125 144.1 23.8125 143 C 27.7125 145.2 32.7 144.40625 35.5 140.90625 C 38.7 136.90625 38.09375 131.1125 34.09375 127.8125 C 31.09375 125.3125 27.0125 124.9875 23.8125 126.6875 C 23.9125 122.2875 22.10625 117.90625 18.40625 114.90625 C 15.65 112.675 12.352441 111.57703 9.09375 111.5625 z M 204.25 112.5625 C 203.33176 112.61362 202.4 112.8125 201.5 113.1875 C 197.3 114.9875 195.29375 119.80625 197.09375 123.90625 C 197.49375 124.90625 198.10625 125.8 198.90625 126.5 C 195.50625 128.6 194.0875 132.8 195.6875 136.5 C 195.87544 136.92809 196.0945 137.34034 196.34375 137.71875 C 195.5769 137.64248 194.7875 137.59375 194 137.59375 C 190.7 137.59375 187.6125 138.3 184.8125 139.5 C 182.2125 136.3 178.1 134.1875 173.5 134.1875 C 165.5 134.1875 159 140.6 159 148.5 C 159 150.5 159.39375 152.3 160.09375 154 C 153.19375 155.1 148 160.99375 148 168.09375 C 148 175.99375 154.5 182.40625 162.5 182.40625 C 168.5 182.40625 173.70625 178.7 175.90625 173.5 C 176.4865 174.24603 177.1171 174.95551 177.78125 175.625 C 193.80776 159.10266 204.18285 137.05701 205.78125 112.625 C 205.27634 112.55958 204.76709 112.53371 204.25 112.5625 z M 106 131.40625 C 106 149.30332 98.294048 161.40208 87.625 169.59375 C 84.971075 159.54326 75.706344 152.09375 64.59375 152.09375 C 61.19375 152.09375 57.9 152.79375 55 154.09375 C 52.2 150.69375 47.89375 148.5 43.09375 148.5 C 34.69375 148.5 27.90625 155.2 27.90625 163.5 C 27.90625 165.6 28.29375 167.5125 29.09375 169.3125 C 28.958491 169.33316 28.821521 169.35077 28.6875 169.375 C 47.027189 191.72004 74.836575 206 106 206 C 128.93192 206 150.06775 198.26263 166.9375 185.28125 C 142.67009 181.95763 106 170.49109 106 131.40625 z"/>
  <circle cx="168.8" cy="46.7" r="27.4" fill="#18ffff"/>
  <path fill="#16e5e5" d="m 161.8125,30.90625 c -1.62688,0.083 -3.14172,1.261527 -3.62221,2.81805 -0.48049,1.556522 0.10645,3.383858 1.40346,4.36945 l 17.09375,0 c 0.28345,0.0027 0.56662,0.03415 0.84375,0.09375 l 12.28125,0 c 0.28732,-0.06173 0.58113,-0.0932 0.875,-0.09375 l 4.125,0 c -0.85595,-2.586176 -2.08376,-5.007102 -3.625,-7.1875 -9.7791,-5e-6 -19.62421,0 -29.375,0 z m 15.875,15.46875 c -0.32672,0.08152 -0.66327,0.123592 -1,0.125 l -4.59375,0 c -1.27326,1.043749 -1.7864,2.921247 -1.22102,4.467517 0.56537,1.546269 2.16855,2.649958 3.81477,2.626233 l 20.65625,0 c 0.56804,-2.197578 0.84375,-4.531157 0.84375,-6.90625 0,-0.06302 4.2e-4,-0.124579 0,-0.1875 l -5.5,0 c -0.32631,-0.0039 -0.65215,-0.04592 -0.96875,-0.125 z M 165.5,58.40625 c -2.09462,0.106036 -3.90387,2.108551 -3.79751,4.203157 0.10637,2.094606 2.10917,3.903541 4.20376,3.796843 l 9.6875,0 c 2.11325,0.02989 4.05697,-1.886538 4.05697,-4 0,-2.113462 -1.94372,-4.029887 -4.05697,-4 l -9.6875,0 c -0.1353,-0.0069 -0.27095,-0.0069 -0.40625,0 z"/>
  <circle cx="36.7" cy="94.3" r="13.1" fill="#ffab40"/>
  <path fill="#ffcd40" d="M41.90625 89.1875A2.0002 2.0002 0 0 0 42.09375 93.1875L49.71875 93.1875C49.599773 91.788491 49.30527 90.426422 48.78125 89.1875L42.09375 89.1875A2.0002 2.0002 0 0 0 41.90625 89.1875zM37.40625 97.1875a2.0002 2.0002 0 1 0 0 4l4 0a2.0002 2.0002 0 1 0 0-4l-4 0z"/>
  <path fill="#eceff1" d="M 106 128 C 106 157.71337 93.66914 173.23138 80.15625 181.3125 C 79.048068 175.50213 74.286121 170.95232 68.3125 170 C 69.0125 168.3 69.40625 166.5 69.40625 164.5 C 69.40625 156.6 62.90625 150.1875 54.90625 150.1875 C 50.30625 150.1875 46.19375 152.3 43.59375 155.5 C 42.552776 155.05387 41.460345 154.67372 40.34375 154.375 C 39.682337 153.23482 38.750492 152.23611 37.59375 151.5 C 38.39375 150.8 39.00625 149.90625 39.40625 148.90625 C 41.20625 144.80625 39.2 139.9875 35 138.1875 C 32.6 137.1875 30.00625 137.4 27.90625 138.5 C 26.70625 137.2 25.2 136.20625 23.5 135.40625 C 21.875 134.70625 20.16875 134.36406 18.5 134.34375 C 15.729236 134.31002 13.047534 135.18182 10.84375 136.78125 C 13.283695 144.33002 16.59095 151.48008 20.65625 158.125 C 20.649293 158.13017 20.631951 158.11983 20.625 158.125 C 28.5169 171.02037 39.266621 181.98481 51.96875 190.15625 C 52.376521 190.41859 52.806956 190.64968 53.21875 190.90625 C 53.223208 190.91421 53.214284 190.92955 53.21875 190.9375 C 53.392415 191.04566 53.575685 191.14281 53.75 191.25 C 54.371766 191.63198 54.994358 192.00629 55.625 192.375 C 56.204225 192.71492 56.788754 193.04613 57.375 193.375 C 57.582248 193.49062 57.79185 193.60456 58 193.71875 C 61.056656 195.4054 64.19027 196.95454 67.4375 198.3125 C 67.468408 198.30927 67.5004 198.31592 67.53125 198.3125 C 79.374241 203.26064 92.36307 206 106 206 C 116.59157 206 126.79665 204.33727 136.375 201.28125 C 136.585 201.21425 136.7906 201.13085 137 201.0625 C 138.07149 200.71275 139.13225 200.35336 140.1875 199.96875 C 140.19675 199.96538 140.2095 199.97212 140.21875 199.96875 C 140.22789 199.96542 140.24086 199.97208 140.25 199.96875 C 141.45349 199.5293 142.63111 199.04634 143.8125 198.5625 C 143.87333 198.53759 143.93923 198.52503 144 198.5 C 144.30144 198.37602 144.6063 198.25183 144.90625 198.125 C 145.84793 197.72626 146.79206 197.30147 147.71875 196.875 C 148.93206 196.31662 150.12591 195.76111 151.3125 195.15625 C 151.325 195.14988 151.33125 195.13138 151.34375 195.125 C 152.38772 194.59297 153.41513 194.06724 154.4375 193.5 C 154.58503 193.41813 154.72792 193.33259 154.875 193.25 C 155.74417 192.76198 156.61591 192.263 157.46875 191.75 C 157.76093 191.5742 158.05352 191.39744 158.34375 191.21875 C 159.04393 190.78779 159.71765 190.3226 160.40625 189.875 C 170.32922 183.42496 179.05105 175.26971 186.125 165.8125 C 186.13005 165.80575 186.11996 165.788 186.125 165.78125 C 186.36171 165.46463 186.61072 165.16325 186.84375 164.84375 C 187.00179 164.62695 187.15616 164.40561 187.3125 164.1875 C 194.21253 154.56093 199.44935 143.66181 202.59375 131.90625 C 201.55692 131.68167 200.50326 131.55777 199.4375 131.5625 C 196.16565 131.57703 192.85 132.675 190.09375 134.90625 C 186.39375 137.90625 184.5875 142.2875 184.6875 146.6875 C 181.4875 144.9875 177.40625 145.3125 174.40625 147.8125 C 171.02738 150.60006 170.06829 155.17539 171.78125 158.9375 C 168.46719 159.73139 165.57335 161.57611 163.5 164.09375 C 160.6 162.79375 157.30625 162.09375 153.90625 162.09375 C 142.44792 162.09375 132.93473 170.00427 130.625 180.53125 C 117.60214 172.25135 106 156.80882 106 128 z M 52.5 189.5 C 52.540363 189.5954 52.581896 189.68701 52.625 189.78125 C 52.503307 189.79144 52.369034 189.80316 52.25 189.8125 C 52.334135 189.70854 52.41847 189.60482 52.5 189.5 z"/>
  <circle cx="55.2" cy="123.6" r="6.4" fill="#ff5e33"/>
  <path fill="#e5542e" d="m 55.71875,122.46875 a 1.7369069,1.7369069 0 1 0 0.1875,3.46875 l 3,0 a 1.734375,1.734375 0 0 0 0,-3.46875 l -3,0 a 1.7322231,1.7322231 0 0 0 -0.1875,0 z"/>
  <path fill="#78909c" d="m 125.1,131.5 c 1.2,0 2.9,-0.5 4,-1 l 4.9,-2.7 c 1,-0.6 1.3,-1.8 0.6,-2.8 L 116.8,99.2 c -0.7,-1 -1.4,-0.8 -1.6,0.3 l -4.6,25.4 c -0.2,1.1 -0.5,3 -0.6,4.2 l 0,0.3 c -0.1,1.2 0.8,2.1 1.9,2.1 h 13.2 z"/>
  <path fill="#cfd8dc" d="m 99.8,131.5 c 1.2,0 2,-0.9 1.9,-2.1 l 0,-0.3 c -0.1,-1.2 -0.4,-3 -0.6,-4.2 L 96.5,99.5 C 96.3,98.4 95.6,98.2 95,99.2 l -15.7,25.7 c -0.6,1 -0.3,2.4 0.6,3.1 l 3,2.2 c 0.9,0.7 2.6,1.3 3.8,1.3 h 13.1 z"/>
  <path fill="#fff" d="m 106.3,61.7 -0.3,-0.3 -0.3,0.3 c -0.1,0 -10.2,25.8 -10.2,39.1 0,3.3 21,3.3 21,0 0,-13.4 -10.1,-39.1 -10.2,-39.1 z"/>
  <path fill="#fff" d="M95.5 100.7H116.5V131.5H95.5z"/>
  <path fill="#eceff1" d="m 116.5,100.7 c -0.1,-13.4 -10.1,-39 -10.2,-39 l -0.3,-0.3 -0.3,0.3 c -0.1,0 -10.1,25.7 -10.2,39 h 0 v 30.8 h 21 l 0,-30.8 0,0 z"/>
  <path fill="#16e5e5" d="M 177.53125 38.1875 A 4.2031255 4.2031255 0 0 1 177.6875 46.375 L 189.71875 46.375 A 4.2031255 4.2031255 0 0 1 189.8125 38.1875 L 177.53125 38.1875 z"/>
</svg>
